# xmcd
#
# Track frame offsets:
#	150
#	21814
#	46502
#	64132
#	83374
#	100354
#	122809
#	138604
#	153463
#
# Disc length: 2109 seconds
#
# Revision: 1
# Processed by: cddbd v1.5.2PL0 Copyright (c) Steve Scherf et al.
# Submitted via: audiograbber 1.83.01
#
DISCID=6c083b09
DTITLE=Adrian Kosky - Frozen With Intent
DYEAR=2002
DGENRE=Country
TTITLE0=I Got A Loss Here Lord
TTITLE1=Waking Up Older
TTITLE2=If You Don't Want To Love Me Now
TTITLE3=That Thing
TTITLE4=In My Barn
TTITLE5=Mecedes Benz Blues
TTITLE6=Frozen With Intent
TTITLE7=Big Brained Woman
TTITLE8=Big Room Boogie
EXTD=Recorded at Daylesford, Victoria, Australia 
EXTT0=
EXTT1=
EXTT2=
EXTT3=
EXTT4=
EXTT5=
EXTT6=
EXTT7=
EXTT8=
PLAYORDER=
